<?xml version="1.0" encoding="UTF-8" standalone="no"?>
<!-- Created with Inkscape (http://www.inkscape.org/) -->

<svg
   xmlns:dc="http://purl.org/dc/elements/1.1/"
   xmlns:cc="http://creativecommons.org/ns#"
   xmlns:rdf="http://www.w3.org/1999/02/22-rdf-syntax-ns#"
   xmlns:svg="http://www.w3.org/2000/svg"
   xmlns="http://www.w3.org/2000/svg"
   xmlns:sodipodi="http://sodipodi.sourceforge.net/DTD/sodipodi-0.dtd"
   xmlns:inkscape="http://www.inkscape.org/namespaces/inkscape"
   width="210mm"
   height="297mm"
   viewBox="0 0 744.09448819 1052.3622047"
   id="svg2"
   version="1.1"
   inkscape:version="0.91 r13725"
   sodipodi:docname="icons.svg">
  <defs
     id="defs4">
    <clipPath
       clipPathUnits="userSpaceOnUse"
       id="clipPath4205">
      <rect
         style="opacity:1;fill:#1b2d3c;fill-opacity:1;fill-rule:nonzero;stroke:#ffffff;stroke-width:0.63849032;stroke-linecap:round;stroke-linejoin:round;stroke-miterlimit:4;stroke-dasharray:none;stroke-opacity:1"
         id="rect4207"
         width="1447.318"
         height="419.07782"
         x="-519.60101"
         y="681.16693"
         rx="8.3428535"
         ry="2.9172173" />
    </clipPath>
    <clipPath
       clipPathUnits="userSpaceOnUse"
       id="clipPath4217">
      <rect
         style="opacity:1;fill:#1b2d3c;fill-opacity:1;fill-rule:nonzero;stroke:#ffffff;stroke-width:0.73464406;stroke-linecap:round;stroke-linejoin:round;stroke-miterlimit:4;stroke-dasharray:none;stroke-opacity:1"
         id="rect4219"
         width="572.68774"
         height="353.82684"
         x="-556.65436"
         y="331.40131"
         rx="5.4633064"
         ry="2.4042637"
         clip-path="none" />
    </clipPath>
  </defs>
  <sodipodi:namedview
     id="base"
     pagecolor="#ffffff"
     bordercolor="#666666"
     borderopacity="1.0"
     inkscape:pageopacity="0.0"
     inkscape:pageshadow="2"
     inkscape:zoom="4.2691572"
     inkscape:cx="813.39191"
     inkscape:cy="320.15102"
     inkscape:document-units="px"
     inkscape:current-layer="layer1"
     showgrid="false"
     inkscape:window-width="1366"
     inkscape:window-height="685"
     inkscape:window-x="0"
     inkscape:window-y="24"
     inkscape:window-maximized="1" />
  <metadata
     id="metadata7">
    <rdf:RDF>
      <cc:Work
         rdf:about="">
        <dc:format>image/svg+xml</dc:format>
        <dc:type
           rdf:resource="http://purl.org/dc/dcmitype/StillImage" />
        <dc:title></dc:title>
      </cc:Work>
    </rdf:RDF>
  </metadata>
  <g
     inkscape:label="Layer 1"
     inkscape:groupmode="layer"
     id="layer1">
    <path
       style="fill:#000000"
       d="m 825.50172,710.18471 c -0.14704,-0.0579 -1.07338,-0.39203 -2.05854,-0.74253 -1.22133,-0.43451 -1.82097,-0.67347 -1.88478,-0.75108 -0.086,-0.10459 -0.0936,-0.30577 -0.0936,-2.48621 l 0,-2.37241 0.12065,-0.0302 c 0.0779,-0.0196 0.71713,0.18073 1.80458,0.56542 0.92614,0.32765 1.86436,0.6556 2.08492,0.72878 0.63766,0.21158 0.58826,-0.0118 0.58742,2.65655 -4.2e-4,1.26862 -0.0152,2.36073 -0.033,2.4269 -0.0396,0.14761 -0.16229,0.14875 -0.52772,0.005 z m 1.31438,0.0167 c -0.0389,-0.0728 -0.0579,-0.87414 -0.0579,-2.45597 0,-2.7008 -0.0596,-2.43238 0.58815,-2.64937 0.22057,-0.0739 0.78599,-0.27076 1.25652,-0.43749 2.50971,-0.88936 2.57506,-0.90979 2.66675,-0.8337 0.0778,0.0646 0.0869,0.31734 0.0869,2.41226 0,2.15065 -0.007,2.34917 -0.0936,2.45152 -0.0915,0.10886 -0.38158,0.22288 -2.12538,0.83535 -0.47052,0.16526 -1.10813,0.39425 -1.41691,0.50889 -0.7796,0.28941 -0.83441,0.29962 -0.90458,0.16851 z m 5.80524,-3.58145 c -0.15898,-0.17567 -0.1033,-0.31311 0.30764,-0.75937 0.43223,-0.46941 0.77378,-1.06258 0.89188,-1.54894 0.0917,-0.37746 0.0916,-1.11996 0,-1.49712 -0.17286,-0.71099 -0.6427,-1.49119 -1.2417,-2.062 -0.66776,-0.63634 -1.34267,-1.00986 -2.54555,-1.40884 -1.47014,-0.48764 -2.81082,-0.69972 -4.42332,-0.69972 l -0.83029,0 -0.004,0.60153 c -0.005,0.85873 -0.0456,1.07838 -0.19964,1.10022 -0.163,0.0231 -0.17888,0.012 -1.88168,-1.3187 -1.88585,-1.47373 -1.97834,-1.55138 -1.97834,-1.66079 0,-0.13243 0.16295,-0.27118 2.0786,-1.77002 1.40172,-1.09673 1.74759,-1.34402 1.81793,-1.29977 0.11366,0.0715 0.15827,0.38459 0.16313,1.14487 l 0.004,0.62035 1.48375,0.0313 c 2.06059,0.0435 3.18724,0.20049 4.36616,0.6085 1.05317,0.36449 2.23852,1.04512 2.95378,1.69607 1.45915,1.32796 2.00605,3.6021 1.34946,5.61134 -0.3451,1.05606 -0.93021,1.95047 -1.61683,2.47153 -0.34094,0.25874 -0.54916,0.30056 -0.69488,0.13956 z m -6.7988,-2.14833 c -0.23526,-0.0853 -1.11031,-0.39752 -1.94454,-0.69374 -0.83423,-0.29623 -1.56353,-0.56361 -1.62067,-0.59418 -0.0633,-0.0339 -0.0974,-0.0993 -0.0873,-0.16746 0.0168,-0.11294 0.21733,-0.19525 1.91475,-0.78577 0.24996,-0.087 0.61088,-0.21583 0.80202,-0.28639 0.19116,-0.0706 0.6132,-0.21795 0.93789,-0.32756 l 0.59033,-0.19927 0.53251,0.18572 c 0.69522,0.24247 2.1911,0.77056 2.95712,1.04396 1.00807,0.35978 1.0151,0.44788 0.0617,0.77186 -0.22056,0.0749 -0.77396,0.26837 -1.22978,0.42983 -0.45582,0.16146 -1.14025,0.40387 -1.52095,0.5387 -0.38071,0.13483 -0.75365,0.24386 -0.82877,0.2423 -0.0751,-0.002 -0.32906,-0.0726 -0.56432,-0.158 z"
       id="path4191"
       inkscape:connector-curvature="0"
       inkscape:export-xdpi="90"
       inkscape:export-ydpi="90" />
    <path
       style="fill:#000000"
       d="m 796.01764,714.33427 c -0.61642,-0.16838 -1.09989,-0.66642 -1.2625,-1.30056 -0.32381,-1.26266 0.86829,-2.46949 2.11385,-2.13996 0.93391,0.24706 1.51436,1.2189 1.27816,2.13996 -0.24619,0.96006 -1.21346,1.55079 -2.12951,1.30056 z m 0.72523,-1.14667 c 0.20851,-0.10772 0.33663,-0.32533 0.33663,-0.5718 0,-0.29998 -0.19287,-0.55134 -0.48415,-0.631 -0.43351,-0.11858 -0.88059,0.339 -0.76335,0.78125 0.10627,0.40089 0.55174,0.60706 0.91087,0.42155 z m 2.15091,-0.70909 c -9.4e-4,-0.25156 -0.10365,-0.64406 -0.2461,-0.94255 -0.0765,-0.16033 -0.13281,-0.2915 -0.12504,-0.2915 0.0131,0 3.30423,-0.79566 6.65889,-1.60988 0.80039,-0.19427 1.49371,-0.35321 1.54071,-0.35321 0.20212,0 0.2926,0.26433 0.1811,0.529 -0.1136,0.26968 -0.12192,0.27317 -2.41129,1.00912 -2.04705,0.65806 -5.34031,1.71721 -5.51559,1.77389 -0.0752,0.0243 -0.0821,0.0149 -0.0826,-0.11487 z m -3.36913,-2.2619 c -0.0172,-0.0566 -1.50832,-6.03125 -2.13643,-8.56046 -0.25898,-1.04284 -0.26456,-1.06017 -0.35305,-1.09574 -0.0366,-0.0147 -0.7968,-0.25761 -1.68925,-0.53972 -1.52874,-0.48328 -1.62941,-0.52043 -1.7391,-0.642 -0.33095,-0.36683 -0.0734,-0.98692 0.40978,-0.98692 0.16778,0 3.77848,1.10538 3.91882,1.19969 0.0718,0.0483 0.16704,0.16064 0.21157,0.24966 0.0597,0.11944 2.55942,10.15307 2.55942,10.27343 0,0.01 -0.12866,0.0188 -0.2859,0.0188 -0.16654,0 -0.40496,0.0309 -0.57107,0.0741 -0.15684,0.0408 -0.28964,0.0741 -0.29512,0.0741 -0.006,0 -0.0189,-0.0292 -0.0296,-0.0648 z m 2.76806,-0.007 c -0.32467,-0.0797 -0.65976,-0.34964 -0.79821,-0.64283 -0.1031,-0.21843 -1.58394,-6.2195 -1.61579,-6.54807 -0.0476,-0.4915 0.2566,-1.02298 0.70006,-1.2231 0.15648,-0.0706 2.53594,-0.67406 2.56031,-0.64932 0.008,0.008 0.0983,0.34588 0.20051,0.7505 0.10222,0.40462 0.19763,0.74929 0.21196,0.76594 0.0265,0.0309 1.19705,-0.25581 1.24998,-0.30615 0.0159,-0.0152 -0.0546,-0.3661 -0.15671,-0.77975 -0.10223,-0.41364 -0.17271,-0.76392 -0.15673,-0.77838 0.0159,-0.0145 0.57555,-0.16417 1.24345,-0.33268 1.04797,-0.2644 1.24379,-0.30368 1.42918,-0.2866 0.38977,0.0358 0.78248,0.27863 0.96611,0.59714 0.0984,0.17074 1.61536,6.25793 1.64931,6.61838 0.0514,0.54543 -0.32964,1.11906 -0.84649,1.27448 -0.10026,0.0302 -0.66858,0.17745 -1.26289,0.32732 l -1.08056,0.27249 -0.19148,-0.76254 c -0.10529,-0.4194 -0.20357,-0.77617 -0.21833,-0.79284 -0.0265,-0.03 -1.19374,0.2586 -1.25172,0.30949 -0.0165,0.0145 0.0531,0.35559 0.15499,0.75791 0.10179,0.40231 0.18509,0.75259 0.18509,0.77838 0,0.0628 -2.47337,0.68751 -2.69854,0.68149 -0.0902,-0.002 -0.21334,-0.0164 -0.2735,-0.0312 z"
       id="path4193"
       inkscape:connector-curvature="0"
       inkscape:export-xdpi="90"
       inkscape:export-ydpi="90" />
    <path
       style="fill:#000000"
       d="m 766.70637,712.17713 c -2.50211,-0.22171 -4.69285,-1.53847 -6.05894,-3.64178 -1.64448,-2.53194 -1.69934,-5.85824 -0.13936,-8.44926 1.07575,-1.78674 2.84799,-3.12144 4.81309,-3.6248 1.91285,-0.48998 3.84914,-0.2977 5.58556,0.55464 3.13811,1.5404 4.88999,4.89022 4.38103,8.3771 -0.50551,3.46329 -3.25729,6.20955 -6.7335,6.71999 -0.51663,0.0759 -1.378,0.10575 -1.84788,0.0641 z m 5.76208,-4.0838 c 0.22347,-0.1034 0.3862,-0.26118 0.49237,-0.47738 l 0.0937,-0.19084 0.0105,-1.57864 c 0.0123,-1.84125 0.008,-1.87723 -0.25729,-2.1723 -0.0886,-0.0985 -0.22712,-0.20594 -0.32355,-0.25084 -0.16796,-0.0782 -0.174,-0.0785 -1.52713,-0.0788 l -1.3585,-3.4e-4 0.15818,0.10031 c 0.17274,0.10955 0.34575,0.35016 0.37892,0.527 l 0.0209,0.11163 0.98259,0 c 0.94319,0 0.98613,0.003 1.07108,0.0696 l 0.0885,0.0696 0,0.93803 0,0.93803 -2.41734,0 -2.41735,0 -0.009,-0.42825 -0.009,-0.42825 -0.12789,-0.0105 c -0.0703,-0.006 -0.24037,0.0229 -0.37786,0.0637 l -0.24999,0.0742 7.4e-4,1.02795 c 6.7e-4,0.94838 0.006,1.03918 0.0666,1.17304 0.12489,0.27522 0.31788,0.45692 0.58357,0.54944 0.15969,0.0556 0.34403,0.0593 2.57357,0.0522 2.36263,-0.008 2.40403,-0.009 2.55441,-0.0785 z m -4.95357,-0.73779 c -0.037,-0.037 -0.0528,-0.1172 -0.0528,-0.26871 l 0,-0.21592 2.41835,0 2.41835,0 0,0.20153 c 0,0.15674 -0.0149,0.21645 -0.0672,0.2687 -0.0659,0.0659 -0.11196,0.0672 -2.36557,0.0672 -2.04467,0 -2.30422,-0.006 -2.35118,-0.0528 z m -1.47283,-2.24824 c 0.14673,-0.0278 0.40157,-0.0984 0.56632,-0.1569 l 0.29953,-0.1063 1.1252,-0.0224 c 1.26144,-0.0251 1.37677,-0.0433 1.57591,-0.24877 0.19901,-0.20532 0.18151,-0.55792 -0.0368,-0.74162 -0.21186,-0.17826 -0.33373,-0.19254 -1.833,-0.21474 l -1.3855,-0.0205 0.33785,-0.2855 c 0.54155,-0.45763 0.6674,-0.65726 0.84314,-1.33746 l 0.1069,-0.41379 0.19356,0.3802 c 0.20364,0.40001 0.40763,0.63205 0.76199,0.86677 l 0.15282,0.10122 0.63242,0 c 0.54797,0 0.63241,-0.007 0.63241,-0.0519 0,-0.17837 -1.47122,-2.07032 -1.75298,-2.2543 -0.14449,-0.0943 -0.40288,-0.17933 -0.54522,-0.17933 -0.24571,0 -1.3401,0.36296 -2.20261,0.73051 -0.87539,0.37303 -1.29846,0.50025 -1.87255,0.56306 l -0.20992,0.023 0,1.30379 0,1.30378 0.15954,0.1405 c 0.39646,0.34914 1.29938,0.6436 2.04517,0.66697 0.0765,0.002 0.25909,-0.0184 0.40582,-0.0462 z m -3.37266,-0.28527 c 0.0311,-0.0326 0.0475,-3.35022 0.0168,-3.405 -0.0255,-0.0456 -0.0958,-0.0546 -0.42522,-0.0546 -0.26218,0 -0.4082,0.0135 -0.43498,0.0403 -0.0303,0.0303 -0.0402,0.45062 -0.0398,1.68781 3.4e-4,0.90612 0.0116,1.66412 0.0252,1.68445 0.0136,0.0203 0.0466,0.044 0.0734,0.0526 0.0648,0.0208 0.76416,0.0159 0.78463,-0.006 z"
       id="path4197"
       inkscape:connector-curvature="0"
       inkscape:export-xdpi="90"
       inkscape:export-ydpi="90" />
    <path
       style="fill:#000000"
       d="m 765.62153,748.71266 c -0.1192,-0.0588 -2.07811,-1.97133 -4.35314,-4.24999 -3.52989,-3.53553 -4.14289,-4.17955 -4.18056,-4.39208 -0.0243,-0.13698 -0.0346,-1.67966 -0.023,-3.42817 0.0205,-3.08616 0.0254,-3.185 0.16851,-3.37995 0.33186,-0.45222 0.30989,-0.44963 3.82665,-0.44976 2.69783,-7e-5 3.22629,0.0165 3.41756,0.10726 0.12444,0.0591 2.0882,1.97228 4.36389,4.25161 3.60834,3.61412 4.14373,4.17767 4.18529,4.40552 0.10705,0.58678 0.157,0.52591 -3.19283,3.89098 -1.78316,1.79126 -3.24079,3.19902 -3.37075,3.25542 -0.29345,0.12734 -0.56883,0.12379 -0.84162,-0.0108 z m 2.44063,-10.90102 -4.00236,-4.00284 -3.0066,0 -3.00662,0 0,3.00613 0,3.00614 4.0023,4.00276 4.00229,4.00276 3.00668,-3.00606 3.00669,-3.00606 -4.00238,-4.00283 z m -2.72202,6.44332 c -0.19705,-0.11175 -0.24669,-0.20142 -0.24795,-0.44798 -9.2e-4,-0.182 0.19708,-0.41117 1.36799,-1.58324 1.17536,-1.17652 1.39939,-1.37028 1.58323,-1.36934 0.11779,5.7e-4 0.24939,0.0246 0.29245,0.0534 0.1446,0.0965 0.25022,0.37647 0.20197,0.53527 -0.0582,0.1914 -2.47957,2.65361 -2.74942,2.79574 -0.22817,0.12018 -0.26266,0.12143 -0.44827,0.0162 z m -1.50396,-1.49249 c -0.14701,-0.0712 -0.31053,-0.33605 -0.31053,-0.50301 0,-0.093 2.67076,-2.80198 2.87052,-2.91162 0.3145,-0.17263 0.79997,0.31284 0.62733,0.62734 -0.12824,0.23365 -2.82697,2.87067 -2.93275,2.8657 -0.0564,-0.003 -0.17097,-0.0379 -0.25457,-0.0784 z m -2.95042,-4.11437 c -0.74883,-0.39579 -1.03518,-1.27372 -0.65828,-2.01829 0.16123,-0.31852 0.308,-0.46902 0.60548,-0.62084 0.79194,-0.4042 1.66002,-0.1228 2.064,0.66907 0.21598,0.42335 0.16211,1.07919 -0.12173,1.48218 -0.41275,0.586 -1.28009,0.80995 -1.88947,0.48788 z m 1.01547,-0.97229 c 0.19911,-0.18019 0.16993,-0.55217 -0.0574,-0.73095 -0.24621,-0.19368 -0.42067,-0.1862 -0.63404,0.0272 -0.21338,0.21337 -0.22085,0.38783 -0.0272,0.63404 0.17313,0.2201 0.51571,0.25334 0.71859,0.0697 z"
       id="path4195"
       inkscape:connector-curvature="0"
       inkscape:export-xdpi="90"
       inkscape:export-ydpi="90" />
    <path
       style="fill:#000000"
       d="m -475.80955,1086.4789 c -18.48073,-4.0021 -32.9127,-17.6676 -38.40462,-36.3649 -0.88479,-3.0123 -1.59538,-9.0558 -1.59538,-13.5685 0,-14.5573 5.23972,-26.7531 15.69653,-36.535 6.70005,-6.26751 12.23174,-9.51881 21.18226,-12.44991 4.26756,-1.3975 7.57309,-1.6608 16,-1.2742 12.86478,0.5901 19.53104,2.8655 28.47144,9.7179 l 6.21749,4.76541 3.13814,-2.61211 c 9.97634,-8.3041 20.61999,-12.1196 33.75424,-12.1003 12.5237,0.019 22.22479,3.3003 31.97776,10.8177 l 4.93785,3.80591 6.22915,-4.71481 c 3.42604,-2.5932 8.854,-5.7293 12.06215,-6.9692 7.23853,-2.7976 22.07126,-3.7654 30.23195,-1.9725 6.93263,1.5231 17.35867,6.8811 22.38874,11.5058 2.9296,2.69351 3.91617,3.14761 4.35478,2.00461 0.3119,-0.81281 0.96994,-1.22891 1.4623,-0.92461 0.49237,0.3043 0.89522,0.083 0.89522,-0.4915 0,-0.5747 1.9125,-2.2845 4.25,-3.7997 2.3375,-1.5151 4.475,-2.984 4.75,-3.2642 0.275,-0.2801 2.075,-1.1183 4,-1.8626 19.29197,-7.4594 38.90753,-4.2597 53.19015,8.6763 l 2.69015,2.43651 6.26788,-4.71171 c 7.92109,-5.9543 9.95368,-6.9892 17.89616,-9.1114 8.75822,-2.3402 20.68159,-2.1462 29.02779,0.4722 6.43916,2.0202 17.13488,8.1699 19.74612,11.3536 1.18088,1.43971 2.01455,1.10061 8,-3.2541 12.22177,-8.8918 25.0968,-12.0311 39.224724,-9.5639 9.20774,1.6079 14.86157,4.0997 22.56914,9.9468 l 5.88789,4.46671 2.5,-2.32791 c 8.59189,-8.0002 21.10118,-12.6406 34.12788,-12.6599 14.3792002,-0.021 24.3592502,3.977 35.17009,14.09001 27.8053,26.0105 17.19903,73.2477 -19.1380698,85.2354 -16.0518302,5.2955 -35.7978202,1.6542 -48.0912302,-8.8685 -2.13763,-1.8298 -4.2235,-3.3268 -4.63526,-3.3268 -0.41177,0 -3.05764,1.7813 -5.87972,3.9586 -17.3609,13.3938 -40.599064,14.238 -59.244134,2.1522 -3.19526,-2.0712 -6.42839,-4.5199 -7.18473,-5.4416 -1.25934,-1.5346 -1.7098,-1.3735 -5.34819,1.9136 -5.44485,4.9191 -16.45226,9.9989 -24.96206,11.5196 -13.84184,2.4737 -30.61156,-2.245 -41.69553,-11.7325 -2.23153,-1.9101 -4.24856,-2.9694 -4.59301,-2.4121 -0.58223,0.9421 -8.11142,5.9367 -13.52604,8.9727 -16.89259,9.4718 -44.12897,4.9956 -57.16414,-9.3947 -1.86803,-2.0622 -2.6319,-2.455 -2.51044,-1.2911 0.23784,2.2794 -10.48167,10.2497 -17.20037,12.7892 -8.90095,3.3642 -18.49662,4.43 -26.97267,2.9957 -8.44938,-1.4297 -21.1672,-7.3481 -25.49339,-11.8637 l -2.83137,-2.9553 -6.33082,4.7918 c -17.02812,12.8885 -39.11191,14.2037 -57.10502,3.4007 -3.24048,-1.9456 -7.04333,-4.634 -8.45077,-5.9743 l -2.55899,-2.437 -2.8288,2.9526 c -6.35382,6.632 -23.41369,13.124 -34.05322,12.9587 -2.2,-0.034 -6.925,-0.6955 -10.5,-1.4697 z m 235.52144,-36.4749 c 0.7543,-1.4586 1.14079,-3.5341 0.85887,-4.6122 -0.45432,-1.7373 -0.0916,-1.911 3.19003,-1.5279 2.95313,0.3448 3.53064,0.154 2.85299,-0.9425 -0.4673,-0.7561 -0.7198,-2.6125 -0.56112,-4.1253 0.15869,-1.5128 -0.19539,-2.7506 -0.78684,-2.7506 -0.59146,0 -1.07537,1.3359 -1.07537,2.9686 0,2.2279 -0.37426,2.825 -1.5,2.393 -1.97996,-0.7598 -1.92863,-5.761 0.0762,-7.4249 1.30466,-1.0827 1.72599,-1.0658 2.44562,0.099 0.47818,0.7737 1.17447,1.1017 1.54733,0.7289 1.06048,-1.0605 -0.29631,-3.636 -1.75731,-3.3358 -3.61832,0.7434 -4.86352,2.0425 -5.4453,5.6807 -0.3422,2.14 -0.89232,3.8909 -1.22248,3.8909 -0.33017,0 -2.29766,-1.8569 -4.3722,-4.1264 -3.78561,-4.1414 -5.10097,-3.8317 -2.24414,0.5284 1.43094,2.1839 1.37238,2.4334 -0.92415,3.9382 -3.21646,2.1075 -4.07699,5.1027 -2.53534,8.8246 2.27419,5.4904 8.56594,5.3771 11.45319,-0.2063 z m -9.54436,0.019 c -1.62845,-1.6284 -1.81142,-2.4181 -0.93829,-4.0495 1.58154,-2.9552 5.51483,-4.5429 7.39287,-2.9843 2.48605,2.0633 2.90353,5.0289 1.00349,7.1284 -2.24763,2.4836 -4.9137,2.4498 -7.45807,-0.095 z m 20.98774,-8.9113 c 1.59355,-2.9776 1.23615,-3.5576 -0.96482,-1.5658 -2.14273,1.9392 -2.60438,3.5 -1.03518,3.5 0.53065,0 1.43065,-0.8704 2,-1.9342 z m -65.25756,-4.3041 c -0.23919,-1.2439 -0.44398,-0.4617 -0.45508,1.7383 -0.0111,2.2 0.18461,3.2178 0.4349,2.2617 0.25029,-0.9561 0.25937,-2.7561 0.0202,-4 z m 72.13916,0.1958 c -0.0308,-3.9746 -0.30948,-4.818 -1.31599,-3.9827 -3.44822,2.8617 -6.71266,-2.5215 -4.02056,-6.6302 1.36297,-2.0801 2.21831,-2.4489 4.58293,-1.976 2.15841,0.4317 2.9072,0.2015 2.9072,-0.8936 0,-2.3201 -6.30926,-1.8957 -8.54501,0.5748 -3.12471,3.4527 -2.40888,8.1849 1.84501,12.1968 2.035,1.9193 3.7,3.999 3.7,4.6215 0,0.6226 0.19923,1.1319 0.44274,1.1319 0.24351,0 0.42516,-2.2691 0.40368,-5.0425 z m 5.12178,-22.8223 c -0.0848,-1.6934 -2.963,3.5205 -2.92906,5.306 0.0289,1.5183 0.42264,1.1755 1.5,-1.306 0.80347,-1.8506 1.44655,-3.6506 1.42906,-4 z m -66.84064,-7.8852 c 1.24387,-1.5861 1.2085,-1.6215 -0.37756,-0.3776 -0.9625,0.7549 -1.75,1.5424 -1.75,1.75 0,0.8231 0.82119,0.2933 2.12756,-1.3724 z m -123.12756,-48.25001 c 0,-0.55 0.675,-1 1.5,-1 1.973,0 1.88879,-0.8501 -0.46697,-4.7137 -2.24849,-3.6877 -1.93129,-4.0908 3.21697,-4.0882 4.29962,0 4.46806,0.6232 1.77693,6.5519 -1.35695,2.9894 -2.53685,4.25 -3.97804,4.25 -1.12689,0 -2.04889,-0.45 -2.04889,-1 z m 65.5,0 c -0.66464,-1.0754 -0.12463,-1.2807 3,-1.1407 1.441,0.065 1.23138,-0.206 -0.75,-0.9682 -2.10905,-0.8112 -2.75,-1.7219 -2.75,-3.9071 0,-2.9652 1.05149,-3.6206 6.15226,-3.8343 2.54866,-0.1068 2.63127,0.054 2.11494,4.1196 -0.29552,2.3269 -0.98163,4.7932 -1.5247,5.4807 -1.18008,1.4939 -5.37,1.6617 -6.2425,0.25 z m 4.5,-5.5 c 0,-0.825 -0.45,-1.5 -1,-1.5 -0.55,0 -1,0.675 -1,1.5 0,0.825 0.45,1.5 1,1.5 0.55,0 1,-0.675 1,-1.5 z m 38.5,5.5 c -0.35261,-0.5705 0.58836,-1.0339 2.19098,-1.079 l 2.80902,-0.079 -2.75,-1.0044 c -2.12156,-0.7748 -2.75,-1.6555 -2.75,-3.8536 0,-2.9789 1.03792,-3.6161 6.26016,-3.8433 2.69355,-0.1172 2.74455,-0.018 2.11348,4.1196 -0.35567,2.3318 -1.09035,4.8021 -1.6326,5.4896 -1.17833,1.494 -5.36851,1.6618 -6.24104,0.25 z m 4.5,-6.059 c 0,-1.1325 -0.45,-1.7809 -1,-1.441 -0.55,0.3399 -1,1.2665 -1,2.059 0,0.7925 0.45,1.441 1,1.441 0.55,0 1,-0.9266 1,-2.059 z m -159,-1.5701 c 0,-5.4141 0.0448,-5.4986 2.75,-5.1873 1.97512,0.2272 2.84059,0.9546 3.07149,2.5812 0.3794,2.6728 2.17851,1.9924 2.17851,-0.8238 0,-1.4597 0.69507,-1.941 2.8029,-1.941 2.73714,0 2.80166,0.129 2.75,5.499 -0.0484,5.0339 -0.24484,5.4991 -2.32195,5.5 -1.93609,8e-4 -2.19201,-0.4026 -1.74402,-2.749 l 0.52503,-2.75 -1.05022,2.6327 c -0.88022,2.2066 -1.69054,2.6416 -5.00598,2.6873 l -3.95576,0.055 0,-5.5037 z m 3.68311,1.4416 c -0.31922,-0.7977 -0.55618,-0.5608 -0.60416,0.6042 -0.0434,1.0541 0.19293,1.6447 0.52522,1.3125 0.33229,-0.3323 0.36781,-1.1949 0.0789,-1.9167 z m 11.98356,3.5208 c -1.3515,-1.3515 -0.60412,-3.4255 1.58333,-4.3937 l 2.25,-0.996 -2.3071,0.4495 c -1.46812,0.286 -2.16738,0.024 -1.92289,-0.7218 0.55179,-1.6821 5.65346,-2.0871 6.15215,-0.4883 0.22594,0.7243 0.68195,2.5545 1.01337,4.067 0.56378,2.5729 0.38675,2.75 -2.74981,2.75 -1.84381,0 -3.65239,-0.3 -4.01905,-0.6667 z m 8.83333,-4.8333 c 0,-4.5714 0.29545,-5.5 1.75,-5.5 1.10005,0 1.75,0.7647 1.75,2.059 0,1.1808 0.44697,1.7828 1.04789,1.4114 0.57633,-0.3562 1.75202,-0.3774 2.61262,-0.047 1.28503,0.4931 1.33767,0.874 0.2945,2.131 -0.96213,1.1593 -0.98945,1.8113 -0.11263,2.6881 2.04822,2.0483 1.25271,2.7577 -3.09238,2.7577 l -4.25,0 0,-5.5 z m 10.16667,4.8333 c -0.36667,-0.3666 -0.66667,-1.9113 -0.66667,-3.4326 0,-2.9627 2.40404,-4.4504 5.35912,-3.3164 2.4546,0.9419 2.03311,4.201 -0.60912,4.7099 l -2.25,0.4334 2.25,0.1362 c 1.2375,0.075 2.25,0.5862 2.25,1.1362 0,1.1089 -5.2799,1.3867 -6.33333,0.3333 z m 20.39753,-1.5833 c -0.64433,-1.6638 -0.40602,-2.7332 0.91469,-4.1047 2.15958,-2.2426 5.62329,-1.4741 6.55258,1.4538 1.43236,4.513 -5.75766,7.0654 -7.46727,2.6509 z m 4.9358,-1.191 c 0,-0.7925 -0.45,-1.7191 -1,-2.059 -0.55,-0.3399 -1,0.3085 -1,1.441 0,1.1324 0.45,2.059 1,2.059 0.55,0 1,-0.6485 1,-1.441 z m 4.64498,2.6673 c -0.2441,-0.3995 -0.60158,-2.0763 -0.7944,-3.7263 -0.25193,-2.1558 0.0715,-3 1.14942,-3 0.89529,0 1.62822,1.1155 1.81806,2.7669 0.17493,1.5219 0.73908,2.5068 1.25367,2.1887 0.51459,-0.318 0.649,-1.7202 0.29869,-3.1159 -0.52956,-2.1099 -0.31948,-2.4774 1.24633,-2.1802 1.1936,0.2267 1.99912,1.3615 2.19967,3.099 0.17403,1.5078 0.77229,2.7415 1.32946,2.7415 0.60066,0 0.75028,-1.1963 0.36756,-2.9388 -0.67357,-3.0668 -0.67568,-3.066 5.43656,-2.1301 0.2475,0.038 -0.09,0.6089 -0.75,1.2689 -0.66,0.66 -1.2,2.1866 -1.2,3.3925 0,2.0019 -0.51785,2.1998 -5.9556,2.2763 -3.27558,0.046 -6.15532,-0.243 -6.39942,-0.6425 z m 18.80957,-3.2263 c 0,-2.2 0.3336,-4 0.74134,-4 0.40774,0 0.48232,-0.675 0.16574,-1.5 -0.34179,-0.8907 -0.0101,-1.5 0.81664,-1.5 0.993,0 1.45824,1.5772 1.62239,5.5 0.19675,4.7019 -0.0293,5.5 -1.55798,5.5 -1.41949,0 -1.78813,-0.8247 -1.78813,-4 z m 4.9109,0.1601 -0.10069,-3.8399 5.40412,0.09 c 5.74566,0.096 7.28778,1.2212 7.31581,5.3399 0.0143,2.0956 -0.41471,2.25 -6.25162,2.25 l -6.26693,0 -0.10069,-3.8399 z m 4.32754,-0.8911 c -0.25354,-0.973 -0.47766,-0.419 -0.49804,1.231 -0.0204,1.65 0.18706,2.446 0.46099,1.769 0.27392,-0.677 0.29059,-2.027 0.0371,-3 z m 3.99012,0.5435 c -0.31922,-0.7977 -0.55618,-0.5608 -0.60416,0.6042 -0.0434,1.0541 0.19293,1.6447 0.52522,1.3125 0.33229,-0.3323 0.36781,-1.1949 0.0789,-1.9167 z m 5.6406,0.4375 c 0.30263,-2.9884 0.83949,-3.818 2.64336,-4.0847 2.7975,-0.4136 3.63291,0.4362 4.50703,4.5847 l 0.68481,3.25 -4.10748,0 -4.10747,0 0.37975,-3.75 z m 18.71506,1.8224 c -1.9217,-3.5907 1.38256,-6.9992 5.32035,-5.4881 2.4546,0.9419 2.03311,4.201 -0.60912,4.71 l -2.25,0.4333 2.25,0.1362 c 3.3635,0.2036 2.71681,2.1362 -0.71482,2.1362 -1.90422,0 -3.33384,-0.6896 -3.99641,-1.9276 z m 11.96123,-3.5724 c 0,-4.8041 0.24908,-5.5 1.96862,-5.5 1.33903,0 1.78453,0.4797 1.39301,1.5 -0.39751,1.0359 0.0654,1.5 1.4962,1.5 2.49429,0 4.49196,3.3225 3.63018,6.0378 -0.4797,1.5114 -1.52628,1.9622 -4.5554,1.9622 l -3.93261,0 0,-5.5 z m 5,1.941 c 0,-0.8575 -0.45734,-1.2764 -1.01631,-0.9309 -0.55897,0.3454 -0.75742,1.047 -0.44098,1.559 0.85723,1.387 1.45729,1.1284 1.45729,-0.6281 z m 5,-0.3352 c 0,-3.5254 0.23674,-3.8806 2.49929,-3.75 2.38303,0.1375 3.70293,2.6442 1.3923,2.6442 -0.68296,0 -0.86756,0.9596 -0.48095,2.5 0.51411,2.0484 0.26272,2.5 -1.39159,2.5 -1.67975,0 -2.01905,-0.6544 -2.01905,-3.8942 z m 6.312,-1.6473 c 0.0146,-4.2461 0.35035,-5.4733 1.43655,-5.25 0.96073,0.1976 1.50757,1.9833 1.69693,5.5415 0.23426,4.4021 0.002,5.25 -1.43655,5.25 -1.4171,0 -1.71263,-0.9651 -1.69693,-5.5415 z m 14.688,0.042 c 0,-4.2222 0.34848,-5.5 1.5,-5.5 0.84963,0 1.5,0.8964 1.5,2.0674 0,1.614 0.43968,1.9278 2.00493,1.431 2.0748,-0.6585 2.31938,-0.3198 3.4306,4.7516 0.50199,2.2909 0.26554,2.75 -1.41648,2.75 -1.48699,0 -2.01905,-0.6588 -2.01905,-2.5 0,-1.375 -0.49878,-2.5 -1.10841,-2.5 -0.68296,0 -0.86756,0.9596 -0.48095,2.5 0.51411,2.0484 0.26272,2.5 -1.39159,2.5 -1.78067,0 -2.01905,-0.6494 -2.01905,-5.5 z m 10.60699,3.9182 c -1.06292,-2.7699 -0.65356,-7.1864 0.71478,-7.7114 1.69939,-0.6522 4.08782,2.922 2.57672,3.8559 -0.5833,0.3605 -0.79051,1.7314 -0.46047,3.0464 0.69046,2.751 -1.81146,3.466 -2.83103,0.8091 z m 4.93572,0.6509 c -0.73955,-1.1966 1.14162,-2.3822 2.4736,-1.559 1.11836,0.6911 0.38417,2.4899 -1.01631,2.4899 -0.48508,0 -1.14086,-0.4189 -1.45729,-0.9309 z m 8.45729,-1.2311 c 0,-2.1192 0.40694,-2.2258 3.06574,-0.8028 1.06384,0.5693 1.93426,0.676 1.93426,0.2371 0,-0.4389 -1.0125,-1.2423 -2.25,-1.7852 -1.2375,-0.5429 -2.3938,-1.9996 -2.56955,-3.2371 -0.34813,-2.4513 -0.38451,-2.4316 5.06955,-2.746 3.06405,-0.1766 3.75,0.1234 3.75,1.6399 0,2.1377 -0.40344,2.2457 -3.06574,0.8209 -1.18773,-0.6357 -1.93426,-0.6639 -1.93426,-0.073 0,0.529 1.35,1.6354 3,2.4585 1.65,0.8231 3,1.0714 3,0.5518 0,-0.5196 1.11167,-1.4513 2.47039,-2.0704 1.88895,-0.8606 2.83039,-0.8268 4,0.1439 2.35568,1.9551 1.81953,3.8478 -1.22039,4.3083 l -2.75,0.4166 2.80902,0.1499 c 1.58922,0.085 2.54064,0.584 2.19098,1.1498 -0.84296,1.3639 -4.83665,1.2633 -6.25762,-0.1576 -0.86412,-0.8642 -1.50399,-0.8702 -2.52375,-0.024 -0.75138,0.6235 -3.02045,1.0716 -5.04238,0.9955 -2.85143,-0.1072 -3.67625,-0.5506 -3.67625,-1.9761 z m 19,-3.338 c 0,-4.2222 0.34848,-5.5 1.5,-5.5 1.07811,0 1.5,1.102 1.5,3.9182 0,2.155 0.27314,4.63 0.60699,5.5 0.43514,1.1339 0.0104,1.5818 -1.5,1.5818 -1.88726,0 -2.10699,-0.5736 -2.10699,-5.5 z m 5.03877,3.5724 c -1.27256,-2.3778 -0.4347,-4.812 1.91273,-5.557 2.10126,-0.6669 5.0485,0.3039 5.0485,1.663 0,0.5304 0.6763,0.2881 1.5029,-0.5385 0.82659,-0.8266 2.73909,-1.3602 4.25,-1.1859 1.5109,0.1743 3.47008,-0.3179 4.35372,-1.0938 1.38692,-1.2178 1.77971,-1.2021 2.87244,0.1146 0.90625,1.0919 0.96323,1.8898 0.20059,2.8087 -0.67529,0.8137 -0.72572,1.8204 -0.13776,2.75 1.41095,2.2309 1.1526,2.9665 -1.04189,2.9665 -1.45377,0 -2,-0.6667 -2,-2.441 0,-2.6843 -1.5808,-4.3095 -2.25197,-2.3152 -0.33121,0.9841 -0.78293,0.9589 -2.08541,-0.1163 -1.45902,-1.2043 -1.66262,-1.1125 -1.66262,0.75 0,1.4558 0.62821,2.1225 2,2.1225 1.1,0 2,0.45 2,1 0,1.6212 -5.99773,1.1695 -6.63837,-0.5 -0.33253,-0.8666 -1.69175,-1.4425 -3.21862,-1.3638 -2.35579,0.1213 -2.3985,0.1832 -0.39301,0.5695 3.27438,0.6307 2.75606,2.2943 -0.71482,2.2943 -1.90422,0 -3.33384,-0.6896 -3.99641,-1.9276 z m 26.20421,0.7706 c -3.30325,-3.3033 1.68418,-8.8082 5.27796,-5.8256 2.48593,2.0631 1.5031,6.4213 -1.52796,6.7756 -1.37887,0.1611 -3.06637,-0.2664 -3.75,-0.95 z m 3.75702,-2.902 c 0,-1.1325 -0.45,-1.7809 -1,-1.441 -0.55,0.3399 -1,1.2665 -1,2.059 0,0.7925 0.45,1.441 1,1.441 0.55,0 1,-0.9266 1,-2.059 z m 4.36387,0.159 c -0.0996,-3.7971 -0.0115,-3.9 3.33669,-3.9 1.89143,0 3.59498,0.5175 3.78568,1.15 1.91668,6.3573 1.79633,6.65 -2.73412,6.65 l -4.28598,0 -0.10227,-3.9 z m 4.63613,0.4 c 0,-0.825 -0.17686,-1.5 -0.39301,-1.5 -0.21616,0 -0.65203,0.675 -0.96862,1.5 -0.31658,0.825 -0.13972,1.5 0.39301,1.5 0.53274,0 0.96862,-0.675 0.96862,-1.5 z m 5.66667,2.8333 c -0.36667,-0.3666 -0.66667,-1.9113 -0.66667,-3.4326 0,-2.9627 2.40404,-4.4504 5.35912,-3.3164 2.4546,0.9419 2.03311,4.201 -0.60912,4.7099 l -2.25,0.4334 2.25,0.1362 c 1.2375,0.075 2.25,0.5862 2.25,1.1362 0,1.1089 -5.2799,1.3867 -6.33333,0.3333 z m 12,0 c -1.21431,-1.2143 -0.69124,-5.068 0.86294,-6.3579 3.51751,-2.9193 8.50372,2.5913 5.27039,5.8246 -1.29351,1.2935 -5.04679,1.6199 -6.13333,0.5333 z m 4.33333,-2.7743 c 0,-0.7925 -0.45,-1.7191 -1,-2.059 -0.55,-0.3399 -1,0.3085 -1,1.441 0,1.1324 0.45,2.059 1,2.059 0.55,0 1,-0.6485 1,-1.441 z m 4.19774,-1.706 c 0.20673,-3.5203 0.84019,-5.4844 2.0043,-6.2147 2.15958,-1.3546 3.46555,-0.1476 1.8919,1.7485 -0.85236,1.027 -0.87908,1.6279 -0.0939,2.1132 0.79195,0.4894 0.78248,1.0572 -0.0341,2.041 -0.62215,0.7497 -0.83867,2.2846 -0.48117,3.411 0.51553,1.6243 0.21149,2.048 -1.46964,2.048 -1.92413,0 -2.09177,-0.4748 -1.81739,-5.147 z m 9.55081,1.397 c -0.56316,-4.4907 0.80139,-6.8684 2.92859,-5.103 0.91173,0.7567 1.19819,2.1441 0.80877,3.9171 -0.33446,1.5228 -0.13159,3.0368 0.45554,3.3997 0.69145,0.4273 1.05855,-1.1002 1.05855,-4.4048 0,-3.8302 0.36433,-5.059 1.5,-5.059 0.84963,0 1.5,0.8964 1.5,2.0674 0,1.614 0.43968,1.9278 2.00493,1.431 2.0748,-0.6585 2.31938,-0.3198 3.4306,4.7516 l 0.60257,2.75 -6.90964,0 -6.90965,0 -0.47026,-3.75 z m 10.25145,0.05 c 0,-1.8572 -0.32241,-2.3776 -1.03278,-1.6672 -0.56803,0.568 -0.74489,1.783 -0.39301,2.7 0.92629,2.4139 1.42579,2.052 1.42579,-1.0328 z m 5.66667,3.0333 c -0.36667,-0.3666 -0.66667,-1.9113 -0.66667,-3.4326 0,-2.9627 2.40404,-4.4504 5.35912,-3.3164 2.4546,0.9419 2.03311,4.201 -0.60912,4.7099 l -2.25,0.4334 2.25,0.1362 c 1.2375,0.075 2.25,0.5862 2.25,1.1362 0,1.1089 -5.2799,1.3867 -6.33333,0.3333 z m 12.04591,0.046 c -1.26174,-1.2617 -0.75813,-6.1478 0.69097,-6.7038 2.1339,-0.8189 5.59645,0.3822 5.59645,1.9412 0,1.702 -1.20257,1.7808 -2.8,0.1834 -0.93333,-0.9334 -1.2,-0.7014 -1.2,1.0438 0,1.3091 0.53302,2.1214 1.27955,1.95 0.70376,-0.1616 1.39275,0.1562 1.53109,0.7062 0.29503,1.1729 -4.05428,1.923 -5.09806,0.8792 z m 8.53742,-0.042 c -1.98494,-0.8009 -1.47035,-5.1494 0.75,-6.3377 4.03707,-2.1606 7.98734,2.6127 4.8,5.8 -1.2291,1.2291 -3.33172,1.4328 -5.55,0.5377 z m 3.75,-2.7787 c 0,-0.7925 -0.45,-1.7191 -1,-2.059 -0.55,-0.3399 -1,0.3085 -1,1.441 0,1.1324 0.45,2.059 1,2.059 0.55,0 1,-0.6485 1,-1.441 z m 4,-2.059 c 0,-4.2222 0.34848,-5.5 1.5,-5.5 1.07811,0 1.5,1.102 1.5,3.9182 0,2.155 0.27314,4.63 0.60699,5.5 0.43514,1.1339 0.0104,1.5818 -1.5,1.5818 -1.88726,0 -2.10699,-0.5736 -2.10699,-5.5 z m 5.03877,3.5724 c -1.91179,-3.5722 1.37916,-7.0005 5.28229,-5.5027 2.18602,0.8388 3.10941,4.2067 1.63911,5.9783 -1.71769,2.0697 -5.70587,1.7957 -6.9214,-0.4756 z m 4.16123,-3.2724 c -0.93333,-0.9334 -1.2,-0.6667 -1.2,1.2 0,1.8666 0.26667,2.1333 1.2,1.2 0.93333,-0.9333 0.93333,-1.4667 0,-2.4 z m 4.33511,1.4612 c 0.19729,-3.2495 0.56971,-3.7651 2.84594,-3.9401 1.44042,-0.1107 2.61895,0.2768 2.61895,0.8612 0,0.7154 0.40843,0.7367 1.25,0.065 1.53278,-1.2231 5.250004,-1.0117 5.250004,0.2987 0,0.5247 -0.9,0.8517 -2,0.7267 -1.5068,-0.1712 -1.30659,0.1529 0.81188,1.3144 3.69891,2.0279 2.95313,3.8358 -1.74473,4.2295 -2.784994,0.2334 -3.657514,-0.03 -3.318964,-1 0.25261,-0.7241 1.31261,-1.1692 2.35555,-0.9891 1.794104,0.3099 1.788514,0.2443 -0.10374,-1.2182 -3.11667,-2.4088 -4.82413,-2.0369 -4.08936,0.8906 0.53681,2.1389 0.28579,2.5 -1.73753,2.5 -2.10542,0 -2.34007,-0.4103 -2.138,-3.7387 z m 17.964894,-1.7612 c 0,-4.5714 0.29545,-5.5 1.75,-5.5 0.9625,0 1.75,0.675 1.75,1.5 0,0.825 0.6199,1.5 1.37756,1.5 0.75765,0 1.94717,0.6863 2.64338,1.5252 1.13177,1.3637 1.45486,1.3542 3.05078,-0.09 1.81634,-1.6438 5.92828,-1.2052 5.92828,0.6323 0,0.5129 0.0266,1.2701 0.059,1.6826 0.0325,0.4125 -0.98004,1.0426 -2.25,1.4003 l -2.30902,0.6503 2.25,0.1 c 3.41548,0.1514 2.69041,2.0997 -0.78138,2.0997 -1.86371,0 -3.26929,-0.6199 -3.649,-1.6094 -0.56765,-1.4793 -0.69046,-1.4793 -1.5183,0 -0.57474,1.027 -2.23973,1.6094 -4.60099,1.6094 l -3.70031,0 0,-5.5 z m 5.5,2 c 0,-0.825 -0.45,-1.5 -1,-1.5 -0.55,0 -1,0.675 -1,1.5 0,0.825 0.45,1.5 1,1.5 0.55,0 1,-0.675 1,-1.5 z m 8.5,-1.5 c 0.33992,-0.55 0.14148,-1 -0.44098,-1 -0.58246,0 -1.05902,0.45 -1.05902,1 0,0.55 0.19844,1 0.44098,1 0.24254,0 0.7191,-0.45 1.05902,-1 z m 4,-0.4969 c 0,-4.5676 0.29592,-5.4977 1.75,-5.5002 1.36941,0 1.75,0.8492 1.75,3.9153 0,2.155 0.27314,4.63 0.60699,5.5 0.44768,1.1666 -0.0116,1.5818 -1.75,1.582 -2.19017,2e-4 -2.35699,-0.3889 -2.35699,-5.4971 z m 5.74298,4.3399 c -3.30325,-3.3033 1.68418,-8.8082 5.27796,-5.8256 2.48593,2.0631 1.5031,6.4213 -1.52796,6.7756 -1.37887,0.1611 -3.06637,-0.2664 -3.75,-0.95 z m 3.75702,-2.902 c 0,-1.1325 -0.45,-1.7809 -1,-1.441 -0.55,0.3399 -1,1.2665 -1,2.059 0,0.7925 0.45,1.441 1,1.441 0.55,0 1,-0.9266 1,-2.059 z m 4.97789,0.492 c -0.64747,-1.9619 -0.92678,-3.8175 -0.62068,-4.1236 0.93356,-0.9335 3.81273,0.6066 3.14716,1.6835 -0.34232,0.5539 -0.14585,1.0071 0.43661,1.0071 0.58246,0 1.05902,-0.675 1.05902,-1.5 0,-0.825 0.675,-1.5 1.5,-1.5 0.825,0 1.5,0.6484 1.5,1.441 0,0.7925 0.52647,1.7663 1.16994,2.164 0.79187,0.4894 0.9589,0.1731 0.51686,-0.9788 -0.40899,-1.0658 -0.0826,-1.9208 0.87319,-2.2876 2.2645,-0.869 2.4957,-0.1301 1.23975,3.9622 -0.76926,2.5065 -1.72604,3.6992 -2.96752,3.6992 -1.00772,0 -1.83222,-0.54 -1.83222,-1.2 0,-0.9334 -0.26667,-0.9334 -1.2,0 -2.07381,2.0738 -3.60448,1.3224 -4.82211,-2.367 z m 12.02211,2.044 c 0,-0.8206 1.82155,-1.227 5.5,-1.227 3.47747,0 5.5,0.4228 5.5,1.1497 0,0.7176 -2.06737,1.1788 -5.5,1.227 -3.72047,0.052 -5.5,-0.3197 -5.5,-1.1497 z m -227.411264,-4.9795 c -0.75596,-3.012 -0.0842,-4.4975 2.03364,-4.4975 1.08888,0 1.4178,0.8763 1.19098,3.173 -0.39185,3.9677 -2.35847,4.7755 -3.22462,1.3245 z m -111.14008,-22.9928 c -4.16705,-2.134 -6.44866,-6.3827 -6.44866,-12.0084 0,-5.9939 2.19085,-10.5876 6.17064,-12.9386 3.4538,-2.0402 8.22341,-2.306 10.30965,-0.5746 0.92544,0.7681 1.5427,0.7882 1.9897,0.065 0.35642,-0.5767 1.97149,-1.0485 3.58903,-1.0485 2.89816,0 2.94098,0.08 2.94098,5.5 l 0,5.5 -3.43261,0 c -2.52432,0 -3.59628,-0.5157 -4.05115,-1.9489 -0.3402,-1.0718 -1.58009,-2.254 -2.75532,-2.627 -4.5871,-1.4559 -7.80629,8.2908 -4.27747,12.9509 1.78767,2.3607 5.98426,2.4167 8.52903,0.1137 1.8688,-1.6913 2.02425,-1.6664 3.90823,0.625 1.96064,2.3846 1.96034,2.388 -0.41441,4.7986 -3.04654,3.0926 -11.49307,3.9305 -16.05764,1.5929 z m 20.87563,-0.1025 c -0.35196,-0.9172 -0.11891,-2.5019 0.51789,-3.5216 1.42687,-2.2848 1.56452,-17.8811 0.15782,-17.8811 -0.55,0 -1,-1.125 -1,-2.5 0,-2.3861 0.2706,-2.5 5.94098,-2.5 6.69241,0 7.94433,0.9999 5.64522,4.5088 -0.94914,1.4485 -1.58072,4.5435 -1.57255,7.706 0.0199,7.6997 0.78778,9.7852 3.60298,9.7852 1.89204,0 2.38337,-0.5291 2.38337,-2.5664 0,-2.2098 0.38216,-2.5225 2.75,-2.25 2.59114,0.2981 2.75,0.6052 2.75,5.3164 l 0,5 -10.26788,0.2852 c -8.8291,0.2452 -10.35756,0.052 -10.90783,-1.3825 z m 23.67571,-0.7938 c 0,-1.3802 0.60627,-2.8694 1.34727,-3.3092 2.00763,-1.1917 6.90892,-16.5233 5.55061,-17.3628 -0.60206,-0.3721 -0.93301,-1.5226 -0.73543,-2.5567 0.30764,-1.6102 1.44199,-1.9216 7.8976,-2.1687 l 7.53836,-0.2884 3.3273,10.98 c 1.85445,6.1196 3.96632,11.2252 4.77093,11.534 0.82222,0.3155 1.30583,1.5244 1.1235,2.8084 -0.29363,2.0678 -0.92057,2.2806 -7.57014,2.5698 l -7.25,0.3153 0,-3.0653 c 0,-1.7521 0.48197,-2.9582 1.125,-2.8153 0.61875,0.1375 1.33125,-0.3125 1.58333,-1 0.32445,-0.8849 -0.88055,-1.25 -4.125,-1.25 -3.48452,0 -4.58333,0.3737 -4.58333,1.559 0,0.8587 0.48363,1.2601 1.07669,0.8936 0.69698,-0.4308 0.96148,0.3419 0.75,2.191 -0.31227,2.7303 -0.58048,2.87 -6.07669,3.1656 -5.55467,0.2988 -5.75,0.2241 -5.75,-2.2003 z m 16.92392,-11.3589 c -0.0418,-0.4125 -0.63914,-2.3091 -1.32733,-4.2147 l -1.25125,-3.4647 -1.17267,3.3639 c -1.62348,4.6571 -1.51648,5.0655 1.32733,5.0655 1.375,0 2.46576,-0.3375 2.42392,-0.75 z m 16.73372,13.0743 c -0.3617,-0.3617 -0.65764,-2.6076 -0.65764,-4.991 0,-4.161 0.12094,-4.3333 3.04049,-4.3333 1.67227,0 4.39094,0.9984 6.04148,2.2187 2.16787,1.6028 3.42732,1.9498 4.53673,1.25 2.63818,-1.6641 1.70781,-2.8368 -3.71222,-4.6792 -7.54589,-2.5649 -9.06239,-4.2454 -8.70321,-9.6447 0.27012,-4.0606 0.64773,-4.6422 4.21073,-6.4859 3.69411,-1.9114 4.15839,-1.9373 8.26438,-0.4608 2.39271,0.8604 4.59546,1.1678 4.89502,0.6831 0.29955,-0.4847 1.86808,-0.8812 3.48562,-0.8812 2.86251,0 2.94098,0.1334 2.94098,5 0,4.8757 -0.0737,5 -2.96482,5 -1.90672,0 -3.33387,-0.6896 -3.99893,-1.9323 -1.34754,-2.5179 -4.74259,-3.5563 -6.59657,-2.0177 -2.00556,1.6645 -0.446,3.3319 4.50338,4.8148 2.18174,0.6536 5.33709,2.3415 7.01187,3.7507 8.46505,7.1229 -2.55154,17.2643 -12.92621,11.8993 -1.74886,-0.9043 -3.00327,-1.0912 -3.20775,-0.4777 -0.40326,1.2098 -5.23223,2.2183 -6.16333,1.2872 z m 28.00903,0.01 c -0.36667,-0.3666 -0.66667,-2.6166 -0.66667,-5 0,-4.161 0.12094,-4.3333 3.04049,-4.3333 1.67227,0 4.32089,0.9466 5.88581,2.1036 1.92379,1.4223 3.54787,1.8807 5.01455,1.4152 3.34576,-1.0619 2.02176,-2.567 -4.34971,-4.9444 -6.59399,-2.4605 -8.59114,-4.5739 -8.59114,-9.0912 0,-6.1996 6.95101,-9.784 13.59234,-7.0091 2.4866,1.039 4.00151,1.2443 4.22536,0.5728 0.19193,-0.5758 1.66147,-1.0469 3.26563,-1.0469 2.83334,0 2.91667,0.1428 2.91667,5 0,4.7351 -0.1396,5 -2.63533,5 -1.54565,0 -3.62018,-1.0627 -5.01714,-2.57 -2.63052,-2.8384 -5.84753,-2.9016 -5.84753,-0.1149 0,1.2476 1.81268,2.5237 6,4.2238 6.62405,2.6896 8.51587,4.5667 8.4682,8.4022 -0.0827,6.6535 -8.80785,10.2616 -15.92036,6.5836 -2.5146,-1.3003 -2.91997,-1.3003 -3.41896,0 -0.56996,1.4853 -4.72237,2.0485 -5.96221,0.8086 z m 28.04363,0.044 c -1.25591,-1.2559 -0.75744,-4.4216 0.7897,-5.0153 1.16847,-0.4484 1.5,-2.4307 1.5,-8.9687 0,-6.7937 -0.28581,-8.3929 -1.5,-8.3929 -0.93333,0 -1.5,-0.9445 -1.5,-2.5 0,-2.4103 0.23333,-2.5 6.5,-2.5 6.26667,0 6.5,0.09 6.5,2.5 0,1.375 -0.45,2.5 -1,2.5 -0.58824,0 -1,3.5 -1,8.5 0,5.3529 0.39483,8.5 1.06642,8.5 0.58653,0 0.92403,1.2375 0.75,2.75 -0.2979,2.5891 -0.64061,2.7672 -5.85612,3.0436 -3.04684,0.1615 -5.85934,-0.026 -6.25,-0.4167 z m 20.58825,-1.3365 c -10.91873,-6.6575 -6.61846,-26.0404 5.77729,-26.0404 2.09337,0 4.10847,0.4892 4.47801,1.0871 0.48382,0.7829 0.97617,0.7829 1.75902,0 0.59792,-0.5979 2.34713,-1.0871 3.88713,-1.0871 2.72727,0 2.8,0.1428 2.8,5.5 l 0,5.5 -3.26287,0 c -2.42129,0 -3.51748,-0.5789 -4.25,-2.2442 -2.06478,-4.6941 -6.97289,-3.0139 -8.05565,2.7577 -0.81222,4.3296 0.16104,7.1734 3.11809,9.1109 2.22191,1.4559 2.64591,1.4179 5.77743,-0.5175 3.34999,-2.0704 3.395,-2.0716 5.14755,-0.135 2.33099,2.5757 1.34566,4.7874 -2.92837,6.5732 -4.81576,2.0122 -10.44705,1.8127 -14.24763,-0.5046 z m 32.36812,1.2929 c -1.04686,-1.0468 -0.77896,-5.3333 0.33333,-5.3333 1.66815,0 1.25516,-15.8877 -0.45751,-17.6004 -2.79103,-2.791 -0.75654,-4.3996 5.5645,-4.3996 5.61921,0 5.89301,0.1161 5.89301,2.5 0,1.375 -0.45,2.5 -1,2.5 -0.58824,0 -1,3.5 -1,8.5 0,4.675 0.39752,8.5 0.88337,8.5 1.39475,0 2.00029,3.7163 0.80096,4.9156 -1.1749,1.1749 -9.92859,1.5068 -11.01766,0.4177 z m 20.65881,-0.7925 c -8.40885,-3.6577 -9.57701,-18.2094 -1.92835,-24.0213 2.69312,-2.0463 4.19234,-2.3522 11.35287,-2.316 l 8.25,0.042 0,5.3774 0,5.3773 -3.5,0 c -2.30618,0 -3.5,-0.4698 -3.5,-1.3775 0,-2.1083 -2.67567,-3.8602 -4.84447,-3.1718 -3.94399,1.2518 -5.14739,9.4444 -1.95269,13.2938 1.40732,1.6957 5.87887,1.587 8.43739,-0.205 1.89089,-1.3244 2.2859,-1.247 4.23802,0.831 2.05131,2.1835 2.06948,2.3669 0.38544,3.8909 -4.16225,3.7668 -11.30815,4.7285 -16.93821,2.2795 z m 26.43709,-0.1063 c -3.2189,-1.7465 -5.27321,-5.3826 -6.17781,-10.9346 -0.91872,-5.6386 2.56046,-12.3382 7.71492,-14.8561 5.08617,-2.4845 11.66044,-1.5448 15.93921,2.2783 2.70224,2.4144 3.17057,3.5904 3.55691,8.9315 0.54369,7.5165 -0.92362,11.4442 -5.28149,14.1375 -3.89961,2.4101 -11.72139,2.6303 -15.75174,0.4434 z m 10.0255,-5.6846 c 3.20884,-3.883 1.54069,-15.75 -2.21399,-15.75 -2.77305,0 -4.87603,4.6287 -4.32482,9.5191 0.73017,6.4781 3.86557,9.4659 6.53881,6.2309 z m 13.92352,6.6283 c -1.1295,-1.1295 -0.82607,-4.1734 0.45871,-4.6017 1.53863,-0.5129 1.45963,-17.0666 -0.0839,-17.5811 -0.59752,-0.1991 -1.0864,-1.4496 -1.0864,-2.7788 0,-2.2785 0.33239,-2.4166 5.81638,-2.4166 l 5.81638,0 4.43002,6.75 4.43002,6.75 0.32415,-3.9208 c 0.2218,-2.6829 -0.14236,-4.1818 -1.1534,-4.7476 -0.87129,-0.4876 -1.26269,-1.6485 -0.95392,-2.8293 0.44204,-1.6903 1.36252,-2.0023 5.907,-2.0023 5.075594,0 5.383374,0.1429 5.383374,2.5 0,1.375 -0.43526,2.5 -0.96725,2.5 -0.54892,0 -1.08953,4.8655 -1.25,11.25 l -0.28275,11.25 -4.045374,0.2975 c -4.03701,0.2969 -4.05526,0.2819 -8.82653,-7.25 -2.62964,-4.1511 -4.97172,-7.5475 -5.20463,-7.5475 -0.23291,0 -0.42347,2.25 -0.42347,5 0,3.8762 0.35276,5 1.56955,5 1.0557,0 1.46493,0.7366 1.25,2.25 -0.27631,1.9455 -1.0013,2.2899 -5.35796,2.5449 -2.77113,0.1622 -5.35863,-0.025 -5.75,-0.4167 z M -409.69657,681.50974 c -19.47061,-4.25135 -35.87633,-13.22509 -48.6918,-26.63383 -14.28465,-14.94594 -22.85461,-32.83403 -25.38022,-52.9762 -0.6371,-5.08097 -1.03867,-36.82765 -1.03506,-81.82804 0.006,-81.01733 0.26443,-85.37787 5.9856,-101.18911 8.55066,-23.6309 28.15387,-44.05019 51.70034,-53.85261 13.13685,-5.46888 22.98237,-6.95641 46.14149,-6.97137 11.18334,-0.007 20.16062,0.32436 19.94952,0.73686 -5.82586,11.38417 -8.7342,21.63148 -8.76549,30.88461 l -0.0174,5.1346 -16.75,0.47813 c -13.78769,0.39356 -17.797,0.85693 -22.67009,2.62005 -8.36915,3.02802 -14.20139,6.65651 -20.81298,12.94867 -7.27286,6.92148 -10.90671,12.62631 -14.44919,22.68394 l -2.81774,8 -0.2924,74.47311 c -0.30239,77.01745 -0.068,82.78367 3.814,93.82868 5.7624,16.39506 21.7518,30.5758 39.08151,34.66077 5.55628,1.30973 26.69968,1.50788 160.89689,1.50788 171.211034,0 160.803274,0.39491 174.127984,-6.60703 8.58418,-4.51086 19.43133,-15.62921 23.3825,-23.96711 5.59353,-11.80366 5.46483,-9.57249 5.47765,-94.9648 0.0131,-86.95217 0.2667,-83.0368 -6.21075,-95.87125 -1.64876,-3.26686 -5.48439,-8.54675 -8.52364,-11.73307 -10.95005,-11.48004 -22.52382,-16.69353 -39.0037,-17.56955 l -10.250004,-0.54486 0,-5.69642 c 0,-7.03219 -3.01167,-19.13245 -6.45141,-25.92046 l -2.58228,-5.09589 13.76684,0.0131 c 16.858114,0.0161 28.540854,2.21094 40.975424,7.69812 26.68278,11.77467 45.20719,33.45953 53.1319402,62.19675 l 2.64514,9.59199 0.007,82.5 c 0.006,73.12712 -0.18001,83.29715 -1.64035,89.51652 -5.2273402,22.26239 -17.5213002,41.57428 -34.8287002,54.71043 -7.73409,5.8701 -21.58386,12.77561 -32.02378,15.96711 l -7.5,2.29275 -162.000004,0.18604 c -135.35097,0.15543 -163.05067,-0.0434 -168.38702,-1.20855 z m 79.2112,-103.84345 c -19.7873,-6.47306 -28.22411,-29.28384 -17.24323,-46.62085 1.56761,-2.475 26.26569,-27.89838 54.88462,-56.49639 28.61894,-28.59802 52.03443,-52.33552 52.03443,-52.75 0,-0.41449 -17.47812,-0.75361 -38.84028,-0.75361 l -38.84028,0 -6.09724,-3.04683 c -10.57628,-5.28503 -16.23408,-13.79464 -17.00351,-25.57413 -0.83624,-12.80223 4.66193,-23.27366 15.51314,-29.54525 l 5.76817,-3.33379 80.92257,-0.27305 c 89.11665,-0.30069 85.74521,-0.51002 94.55333,5.87055 4.6262,3.3512 9.57676,10.52748 11.05851,16.03031 1.60047,5.94365 1.54781,160.5731 -0.0563,165.45845 -4.44094,13.52466 -15.72193,21.42904 -30.56835,21.41869 -12.82347,-0.009 -23.90797,-7.7025 -28.40172,-19.71312 -1.88366,-5.03443 -2.00804,-7.76396 -2.00804,-44.06692 l 0,-38.70006 -54.25,54.19554 c -44.67194,44.62709 -55.12993,54.5826 -59.23389,56.38783 -6.13457,2.69845 -16.4233,3.39974 -22.19193,1.51263 z"
       id="path4209"
       inkscape:connector-curvature="0"
       clip-path="url(#clipPath4217)"
       transform="matrix(0.04890234,0,0,0.04890234,817.13613,711.62676)"
       inkscape:export-xdpi="90"
       inkscape:export-ydpi="90" />
  </g>
</svg>
